<svg xmlns="http://www.w3.org/2000/svg" xmlns:xlink="http://www.w3.org/1999/xlink" version="1.1" width="27" height="27" viewBox="524.44232 141.3269 369.6731 369.6731"><g fill="none" fill-rule="nonzero" stroke="none" stroke-width="none" stroke-linecap="none" stroke-linejoin="none" stroke-miterlimit="10" stroke-dasharray="none" font-family="none" font-weight="none" font-size="none"><path d="M779.74034,466.63928l-107.47488,-234.88648l16.90899,-4.13767l89.10982,88.08506z" id="Path-1" fill="#d9d3d3" stroke="#c7c6cf" stroke-width="2" stroke-linecap="round" stroke-linejoin="round" stroke-dasharray="3,1"></path><path d="M533.44232,328.16345c0,-97.11184 78.72471,-175.83655 175.83655,-175.83655c97.11184,0 175.83655,78.72471 175.83655,175.83655c0,97.11184 -78.72471,175.83655 -175.83655,175.83655c-97.11184,0 -175.83655,-78.72471 -175.83655,-175.83655z" id="Path-1-1" fill-opacity="0" fill="#000000" stroke="#dadbe2" stroke-width="18" stroke-linecap="round" stroke-linejoin="round"></path><g id="Path-1-2"><path d="M677.98124,256.76298c2.90608,23.51744 0.34916,42.88483 -5.29921,65.69257c-2.151,8.68561 -2.95199,16.82561 -7.34079,24.67166" id="Path-1-3" fill-opacity="0" fill="#000000"></path><path d="M665.41646,346.9855c-0.00043,0.00146 0.00022,0.00303 0.00155,0.00377c0.00134,0.00074 0.003,0.00045 0.00402,-0.00069v0c0.16339,-0.29067 0.32677,-0.58134 0.48525,-0.87477c0.15847,-0.29343 0.31203,-0.58964 0.46202,-0.88768c0.14999,-0.29804 0.29641,-0.59792 0.43897,-0.89969c0.14256,-0.30177 0.28126,-0.60543 0.41628,-0.91076c0.13503,-0.30533 0.26638,-0.61233 0.39416,-0.92086c0.12778,-0.30852 0.252,-0.61857 0.37281,-0.92997c0.12081,-0.3114 0.23821,-0.62416 0.35239,-0.93811c0.11418,-0.31395 0.22514,-0.6291 0.33308,-0.94529c0.10795,-0.31619 0.21288,-0.63343 0.31503,-0.95156c0.10215,-0.31813 0.20152,-0.63716 0.29836,-0.95696c0.09684,-0.31979 0.19114,-0.64035 0.28317,-0.96154c0.09203,-0.32119 0.18179,-0.64302 0.26956,-0.96537c0.08776,-0.32235 0.17353,-0.64522 0.25758,-0.9685c0.08405,-0.32328 0.16638,-0.64698 0.24728,-0.97099c0.0809,-0.32401 0.16037,-0.64834 0.23869,-0.9729c0.07832,-0.32456 0.15549,-0.64934 0.23181,-0.97426c0.07631,-0.32493 0.15177,-0.65 0.22665,-0.97514c0.07488,-0.32514 0.14918,-0.65035 0.22318,-0.97555c0.074,-0.3252 0.14771,-0.6504 0.22139,-0.97553c0.07368,-0.32513 0.14734,-0.65018 0.22123,-0.9751c0.0739,-0.32492 0.14803,-0.6497 0.22267,-0.97428c0.07463,-0.32458 0.14977,-0.64895 0.22564,-0.97306c0.07587,-0.32411 0.15248,-0.64795 0.2301,-0.97146c0.07762,-0.32351 0.15624,-0.6467 0.23597,-0.96947c0.07973,-0.32277 0.16055,-0.64513 0.24319,-0.96708c0.08263,-0.32195 0.16708,-0.6435 0.25142,-0.9659c0.08435,-0.3224 0.16859,-0.64564 0.25231,-0.96882c0.08372,-0.32318 0.1669,-0.64629 0.24964,-0.96959c0.08274,-0.3233 0.16505,-0.64678 0.24687,-0.97039c0.08182,-0.32361 0.16315,-0.64734 0.24398,-0.97121c0.08083,-0.32388 0.16116,-0.6479 0.24097,-0.97206c0.07981,-0.32416 0.1591,-0.64847 0.23786,-0.97293c0.07875,-0.32446 0.15697,-0.64906 0.23462,-0.97382c0.07765,-0.32476 0.15475,-0.64967 0.23126,-0.97473c0.07652,-0.32506 0.15245,-0.65028 0.22779,-0.97566c0.07534,-0.32538 0.15007,-0.65091 0.22419,-0.97661c0.07412,-0.3257 0.14762,-0.65156 0.22047,-0.97758c0.07286,-0.32602 0.14508,-0.65221 0.21663,-0.97856c0.07156,-0.32635 0.14245,-0.65287 0.21267,-0.97956c0.07022,-0.32669 0.13976,-0.65354 0.20858,-0.98056c0.06882,-0.32703 0.13693,-0.65422 0.20437,-0.98158c0.06744,-0.32736 0.13422,-0.65488 0.20003,-0.98261c0.06582,-0.32773 0.13067,-0.65568 0.19557,-0.98365c0.0649,-0.32798 0.12985,-0.65598 0.19099,-0.98469c0.06114,-0.32871 0.11848,-0.65813 0.17228,-0.98815c0.0538,-0.33002 0.10408,-0.66063 0.15424,-0.99125c0.05017,-0.33062 0.10023,-0.66124 0.14925,-0.99202c0.04902,-0.33078 0.09699,-0.66172 0.14414,-0.99278c0.04715,-0.33105 0.09348,-0.66222 0.13891,-0.99352c0.04543,-0.33129 0.08995,-0.66271 0.13357,-0.99424c0.04362,-0.33153 0.08633,-0.66318 0.12812,-0.99494c0.04179,-0.33176 0.08264,-0.66364 0.12256,-0.99562c0.03991,-0.33199 0.07888,-0.66408 0.11689,-0.99628c0.03801,-0.3322 0.07505,-0.66451 0.11112,-0.99692c0.03607,-0.33241 0.07116,-0.66492 0.10526,-0.99752c0.0341,-0.3326 0.0672,-0.6653 0.0993,-0.99809c0.0321,-0.33279 0.06318,-0.66567 0.09325,-0.99864c0.03006,-0.33297 0.05911,-0.66602 0.08711,-0.99915c0.02801,-0.33313 0.05498,-0.66634 0.0809,-0.99962c0.02592,-0.33328 0.05079,-0.66663 0.07461,-1.00005c0.02381,-0.33342 0.04657,-0.66691 0.06825,-1.00045c0.02168,-0.33355 0.04229,-0.66715 0.06182,-1.00081c0.01953,-0.33366 0.03798,-0.66737 0.05534,-1.00112c0.01736,-0.33376 0.03363,-0.66756 0.0488,-1.00139c0.01517,-0.33384 0.02925,-0.66771 0.04222,-1.00162c0.01297,-0.33391 0.02483,-0.66784 0.03559,-1.0018c0.01075,-0.33396 0.0204,-0.66794 0.02893,-1.00194c0.00853,-0.334 0.01594,-0.66801 0.02223,-1.00203c0.00629,-0.33402 0.01147,-0.66805 0.01552,-1.00208c0.00405,-0.33403 0.00698,-0.66805 0.00878,-1.00207c0.0018,-0.33402 0.00248,-0.66803 0.00204,-1.00202c-0.00045,-0.33399 -0.00202,-0.66797 -0.00472,-1.00192c-0.0027,-0.33395 -0.00652,-0.66788 -0.01147,-1.00178c-0.00495,-0.3339 -0.01102,-0.66776 -0.01821,-1.00159c-0.00719,-0.33382 -0.01551,-0.66761 -0.02495,-1.00135c-0.00944,-0.33374 -0.01999,-0.66743 -0.03166,-1.00106c-0.01167,-0.33364 -0.02446,-0.66722 -0.03836,-1.00074c-0.0139,-0.33352 -0.02891,-0.66698 -0.04502,-1.00036c-0.01612,-0.33339 -0.03334,-0.66671 -0.05166,-0.99995c-0.01832,-0.33324 -0.03774,-0.66641 -0.05825,-0.99949c-0.02051,-0.33308 -0.04212,-0.66608 -0.06481,-0.99899c-0.02269,-0.33291 -0.04646,-0.66573 -0.07131,-0.99846c-0.02485,-0.33272 -0.05078,-0.66535 -0.07777,-0.99788c-0.02699,-0.33253 -0.05505,-0.66495 -0.08417,-0.99727c-0.02912,-0.33231 -0.05929,-0.66451 -0.09051,-0.99662c-0.03122,-0.33211 -0.0635,-0.66412 -0.09679,-0.99594c-0.0333,-0.33182 -0.06762,-0.66344 -0.10301,-0.99523c-0.03539,-0.33179 -0.07185,-0.66374 -0.10915,-0.99449c-0.03731,-0.33075 -0.07547,-0.66029 -0.11523,-0.99371c-0.03976,-0.33343 -0.08113,-0.67074 -0.12123,-0.99292c-0.0401,-0.32217 -0.07894,-0.62919 -0.12716,-0.99209c-0.04822,-0.3629 -0.10582,-0.78166 -0.13301,-0.99124c-0.02718,-0.20958 0,0 0,0v0c0,0 -0.02394,-0.20997 0,0c0.02394,0.20997 0.06859,0.63029 0.10645,0.99437c0.03786,0.36407 0.06893,0.6719 0.10057,0.9949c0.03164,0.323 0.06383,0.66118 0.09461,0.9954c0.03078,0.33422 0.06013,0.66447 0.08857,0.99587c0.02845,0.33141 0.05599,0.66397 0.08247,0.99631c0.02648,0.33234 0.05191,0.66446 0.0763,0.99671c0.02439,0.33226 0.04775,0.66465 0.07006,0.99708c0.02231,0.33243 0.04356,0.6649 0.06376,0.99742c0.0202,0.33252 0.03933,0.6651 0.0574,0.99771c0.01807,0.33262 0.03506,0.66527 0.05098,0.99797c0.01592,0.33269 0.03076,0.66542 0.04452,0.99818c0.01376,0.33276 0.02643,0.66555 0.038,0.99836c0.01158,0.33281 0.02206,0.66564 0.03145,0.99849c0.00938,0.33285 0.01767,0.66571 0.02485,0.99858c0.00718,0.33287 0.01326,0.66575 0.01822,0.99863c0.00497,0.33288 0.00882,0.66576 0.01156,0.99864c0.00274,0.33287 0.00437,0.66574 0.00488,0.9986c0.00051,0.33285 -0.0001,0.66569 -0.00182,0.99851c-0.00173,0.33282 -0.00457,0.66562 -0.00854,0.99839c-0.00397,0.33277 -0.00905,0.66551 -0.01526,0.99821c-0.00621,0.3327 -0.01354,0.66537 -0.02199,0.998c-0.00845,0.33263 -0.01802,0.66521 -0.02871,0.99774c-0.01069,0.33253 -0.0225,0.66501 -0.03542,0.99744c-0.01292,0.33242 -0.02697,0.66479 -0.04212,0.99709c-0.01515,0.3323 -0.03142,0.66454 -0.0488,0.9967c-0.01738,0.33217 -0.03586,0.66426 -0.05545,0.99627c-0.01959,0.33202 -0.04028,0.66395 -0.06206,0.99581c-0.02179,0.33185 -0.04467,0.66362 -0.06864,0.9953c-0.02397,0.33168 -0.04903,0.66327 -0.07518,0.99476c-0.02614,0.33149 -0.05337,0.66288 -0.08166,0.99418c-0.02829,0.33129 -0.05766,0.66248 -0.08809,0.99356c-0.03043,0.33108 -0.06192,0.66206 -0.09446,0.99292c-0.03254,0.33086 -0.06613,0.66161 -0.10076,0.99224c-0.03463,0.33063 -0.0703,0.66114 -0.10699,0.99153c-0.03669,0.33039 -0.07441,0.66066 -0.11314,0.9908c-0.03873,0.33014 -0.07847,0.66016 -0.11922,0.99004c-0.04074,0.32989 -0.08248,0.65964 -0.1252,0.98926c-0.04272,0.32962 -0.08643,0.65911 -0.1311,0.98846c-0.04467,0.32935 -0.09031,0.65857 -0.13691,0.98764c-0.04659,0.32908 -0.09414,0.65801 -0.14261,0.98681c-0.04848,0.3288 -0.09789,0.65745 -0.14822,0.98596c-0.05033,0.32851 -0.10157,0.65688 -0.15372,0.9851c-0.05215,0.32822 -0.1052,0.6563 -0.15911,0.98423c-0.05392,0.32793 -0.1087,0.65572 -0.1644,0.98335c-0.0557,0.32763 -0.11231,0.6551 -0.16957,0.98246c-0.05726,0.32736 -0.11517,0.65461 -0.17463,0.98158c-0.05946,0.32697 -0.12047,0.65367 -0.17957,0.98069c-0.0591,0.32702 -0.11628,0.65436 -0.17123,0.98213c-0.05495,0.32777 -0.10768,0.65596 -0.16198,0.98391c-0.0543,0.32795 -0.11019,0.65565 -0.16661,0.98328c-0.05642,0.32763 -0.11338,0.6552 -0.17112,0.98264c-0.05774,0.32745 -0.11628,0.65478 -0.17551,0.98201c-0.05923,0.32723 -0.11915,0.65435 -0.17977,0.98137c-0.06062,0.32702 -0.12193,0.65393 -0.18392,0.98073c-0.06198,0.3268 -0.12463,0.6535 -0.18794,0.98009c-0.0633,0.32659 -0.12725,0.65308 -0.19183,0.97946c-0.06458,0.32638 -0.12979,0.65266 -0.19561,0.97883c-0.06582,0.32617 -0.13225,0.65224 -0.19926,0.97821c-0.06702,0.32597 -0.13462,0.65183 -0.20279,0.9776c-0.06817,0.32576 -0.13692,0.65143 -0.20621,0.97699c-0.06929,0.32556 -0.13913,0.65103 -0.2095,0.9764c-0.07037,0.32537 -0.14127,0.65063 -0.21267,0.97581c-0.07141,0.32518 -0.14332,0.65026 -0.21573,0.97523c-0.07241,0.32497 -0.1453,0.64984 -0.21868,0.97467c-0.07337,0.32483 -0.14722,0.64963 -0.22151,0.97412c-0.07429,0.32449 -0.14901,0.64868 -0.22422,0.97358c-0.07521,0.3249 -0.1509,0.6505 -0.22478,0.97658c-0.07389,0.32608 -0.14597,0.65262 -0.21687,0.97928c-0.07091,0.32666 -0.14063,0.65343 -0.2093,0.98033c-0.06867,0.32691 -0.13629,0.65395 -0.20312,0.98105c-0.06683,0.32711 -0.13288,0.65428 -0.19839,0.98147c-0.06551,0.32719 -0.13048,0.6544 -0.19517,0.98159c-0.06469,0.32718 -0.12911,0.65434 -0.19352,0.98142c-0.06441,0.32708 -0.12882,0.65408 -0.19349,0.98096c-0.06468,0.32688 -0.12962,0.65363 -0.19512,0.98021c-0.0655,0.32658 -0.13155,0.65299 -0.19844,0.97916c-0.06689,0.32618 -0.13462,0.65213 -0.20348,0.97779c-0.06886,0.32566 -0.13885,0.65104 -0.21026,0.97606c-0.07141,0.32502 -0.14423,0.6497 -0.21877,0.97394c-0.07453,0.32425 -0.15078,0.64807 -0.22901,0.97139c-0.07823,0.32332 -0.15846,0.64614 -0.24096,0.96836c-0.0825,0.32222 -0.16727,0.64385 -0.25458,0.96479c-0.08731,0.32094 -0.17716,0.64118 -0.26981,0.96062c-0.09265,0.31944 -0.18809,0.63807 -0.28657,0.95579c-0.09848,0.31771 -0.19999,0.6345 -0.30477,0.95023c-0.10477,0.31573 -0.2128,0.63041 -0.32428,0.9439c-0.11148,0.31349 -0.22641,0.62579 -0.34497,0.93674c-0.11856,0.31096 -0.24075,0.62058 -0.36668,0.92872c-0.12593,0.30814 -0.2556,0.61481 -0.38922,0.9198c-0.13362,0.30499 -0.27119,0.60831 -0.41241,0.90999c-0.14123,0.30168 -0.28611,0.60172 -0.43606,0.89928c-0.14994,0.29756 -0.30495,0.59264 -0.45995,0.88772z" id="item14161-1" fill="#c7c6cf" stroke="none" stroke-width="1" stroke-linecap="butt" stroke-linejoin="miter"></path></g><g id="Path-1-4"><path d="M681.31474,272.08304c0.32338,2.62686 0.35817,5.3056 0.97014,7.88057c0.3999,1.68264 3.09091,3.04566 3.80988,4.63517c1.56171,3.45266 0.82539,8.28009 0.60995,11.91131c-0.47369,7.98417 -2.51793,15.75613 -4.67737,23.46179c-1.40534,5.01475 -2.00198,8.72572 -6.32872,11.83527" id="Path-1-5" fill-opacity="0" fill="#000000"></path><path d="M676.30673,331.29315c-0.01256,0.01573 -0.01253,0.03806 0.00006,0.05376c0.01259,0.0157 0.03438,0.02058 0.05246,0.01175v0c0.26236,-0.20784 0.52473,-0.41568 0.77696,-0.63617c0.25223,-0.22049 0.49433,-0.45364 0.72702,-0.69626c0.23268,-0.24262 0.45595,-0.49472 0.66796,-0.75648c0.21201,-0.26177 0.41277,-0.5332 0.60196,-0.81271c0.18919,-0.2795 0.36681,-0.56707 0.53328,-0.86095c0.16648,-0.29389 0.32181,-0.59409 0.46735,-0.89876c0.14554,-0.30467 0.28129,-0.61379 0.40912,-0.9258c0.12783,-0.31201 0.24775,-0.62689 0.36181,-0.94343c0.11407,-0.31654 0.22229,-0.63473 0.32664,-0.95371c0.10436,-0.31898 0.20485,-0.63874 0.30328,-0.95862c0.09842,-0.31988 0.19478,-0.63988 0.29049,-0.95971c0.09572,-0.31982 0.1908,-0.63946 0.28671,-0.95804c0.09591,-0.31858 0.19264,-0.63609 0.29031,-0.95445c0.09767,-0.31837 0.19628,-0.63759 0.29429,-0.95676c0.098,-0.31917 0.1954,-0.63829 0.29247,-0.95764c0.09707,-0.31935 0.19383,-0.63894 0.29006,-0.95872c0.09623,-0.31979 0.19194,-0.63977 0.28706,-0.96001c0.09512,-0.32024 0.18964,-0.64073 0.28346,-0.9615c0.09382,-0.32077 0.18694,-0.64182 0.27926,-0.96318c0.09232,-0.32136 0.18383,-0.64304 0.27445,-0.96505c0.09061,-0.32202 0.18032,-0.64437 0.26902,-0.9671c0.0887,-0.32273 0.1764,-0.64583 0.26298,-0.96932c0.08658,-0.32349 0.17206,-0.64739 0.25631,-0.9717c0.08425,-0.32431 0.16729,-0.64905 0.249,-0.97423c0.08172,-0.32518 0.16212,-0.6508 0.24106,-0.97689c0.07894,-0.32609 0.15641,-0.65265 0.23246,-0.97967c0.07604,-0.32702 0.15065,-0.6545 0.2232,-0.98255c0.07255,-0.32805 0.14305,-0.65665 0.21327,-0.98552c0.07022,-0.32886 0.14017,-0.65798 0.20267,-0.98855c0.0625,-0.33057 0.11756,-0.6626 0.16571,-0.99574c0.04814,-0.33314 0.08937,-0.66739 0.12977,-1.00171c0.0404,-0.33433 0.07998,-0.66873 0.11695,-1.00348c0.03697,-0.33474 0.07134,-0.66982 0.10345,-1.00511c0.03212,-0.33529 0.06199,-0.67078 0.0893,-1.00658c0.02731,-0.3358 0.05206,-0.67189 0.07449,-1.00786c0.02243,-0.33597 0.04254,-0.67182 0.05904,-1.00892c0.0165,-0.3371 0.02939,-0.67545 0.04295,-1.00826c0.01357,-0.33281 0.02781,-0.66007 0.04424,-0.99032c0.01643,-0.33025 0.03505,-0.66348 0.05321,-0.99706c0.01816,-0.33358 0.03586,-0.66751 0.05197,-1.00235c0.01611,-0.33484 0.03061,-0.67058 0.04214,-1.00699c0.01153,-0.33641 0.02007,-0.6735 0.02433,-1.01123c0.00425,-0.33773 0.00422,-0.6761 -0.00157,-1.01496c-0.00579,-0.33886 -0.01734,-0.67821 -0.03625,-1.01777c-0.0189,-0.33957 -0.04516,-0.67935 -0.08091,-1.01886c-0.03575,-0.33951 -0.08098,-0.67875 -0.13729,-1.01681c-0.0563,-0.33806 -0.12367,-0.67495 -0.20746,-1.00928c-0.08378,-0.33433 -0.18398,-0.66609 -0.29345,-0.99251c-0.10947,-0.32642 -0.22822,-0.6475 -0.39663,-0.96203c-0.16841,-0.31453 -0.38649,-0.6225 -0.61931,-0.89246c-0.23281,-0.26996 -0.48036,-0.5019 -0.73095,-0.72813c-0.25059,-0.22623 -0.50421,-0.44675 -0.75352,-0.66604c-0.24932,-0.21929 -0.49433,-0.43735 -0.72943,-0.66507c-0.2351,-0.22772 -0.46029,-0.4651 -0.64545,-0.716c-0.18516,-0.2509 -0.33029,-0.51531 -0.43394,-0.81393c-0.10364,-0.29862 -0.16579,-0.63144 -0.22947,-0.95918c-0.06368,-0.32774 -0.12888,-0.65041 -0.18597,-0.97627c-0.05709,-0.32586 -0.10606,-0.65493 -0.15171,-0.98464c-0.04564,-0.32971 -0.08795,-0.66006 -0.12759,-0.98996c-0.03964,-0.32991 -0.0766,-0.65938 -0.11375,-0.99303c-0.03714,-0.33365 -0.07447,-0.67146 -0.11021,-0.99428c-0.03575,-0.32281 -0.06992,-0.63062 -0.11699,-0.99384c-0.04708,-0.36322 -0.10706,-0.78186 -0.13412,-0.99149c-0.02706,-0.20963 0,0 0,0v0c0,0 -0.02121,-0.21026 0,0c0.02121,0.21026 0.05776,0.6314 0.08608,0.99631c0.02832,0.36491 0.04842,0.67358 0.06885,0.9975c0.02042,0.32392 0.04118,0.66308 0.0621,0.99829c0.02092,0.33521 0.042,0.66648 0.0658,0.99889c0.0238,0.33241 0.05031,0.66597 0.08002,0.9992c0.0297,0.33323 0.0626,0.66612 0.10486,0.99876c0.04227,0.33265 0.09391,0.66505 0.14045,0.99677c0.04654,0.33172 0.08797,0.66277 0.18844,0.9964c0.10047,0.33363 0.25997,0.66985 0.45325,0.96659c0.19328,0.29674 0.42034,0.55399 0.65424,0.80151c0.2339,0.24753 0.47463,0.48532 0.71481,0.71813c0.24018,0.23281 0.47982,0.46063 0.7128,0.69402c0.23298,0.23339 0.45931,0.47235 0.6524,0.71502c0.19309,0.24267 0.35295,0.48905 0.48383,0.76844c0.13088,0.27939 0.23277,0.5918 0.32203,0.90323c0.08926,0.31144 0.16588,0.62191 0.22848,0.93742c0.0626,0.31552 0.11117,0.63609 0.14909,0.95819c0.03792,0.3221 0.06518,0.64574 0.08355,0.97064c0.01837,0.3249 0.02784,0.65107 0.03025,0.97785c0.00241,0.32678 -0.00225,0.65417 -0.01248,0.98196c-0.01023,0.32779 -0.02603,0.65598 -0.04605,0.98447c-0.02002,0.3285 -0.04426,0.65731 -0.07148,0.98644c-0.02722,0.32913 -0.05743,0.65857 -0.08932,0.98867c-0.0319,0.3301 -0.06548,0.66086 -0.0996,0.99189c-0.03411,0.33104 -0.06876,0.66235 -0.10162,0.99694c-0.03286,0.33459 -0.06394,0.67245 -0.09362,1.00491c-0.02968,0.33246 -0.05797,0.65951 -0.08992,0.9873c-0.03196,0.32779 -0.06758,0.65631 -0.10545,0.98428c-0.03786,0.32797 -0.07796,0.65539 -0.12052,0.98259c-0.04256,0.3272 -0.08758,0.65417 -0.13497,0.98079c-0.04739,0.32662 -0.09717,0.65289 -0.14879,0.9789c-0.05162,0.32601 -0.1051,0.65176 -0.16197,0.97696c-0.05687,0.3252 -0.11714,0.64987 -0.1745,0.97499c-0.05736,0.32513 -0.11181,0.65072 -0.16261,0.97712c-0.05079,0.3264 -0.09793,0.6536 -0.14836,0.98039c-0.05043,0.3268 -0.10415,0.65319 -0.15916,0.97949c-0.05501,0.3263 -0.11132,0.65251 -0.16932,0.97855c-0.058,0.32603 -0.11769,0.65188 -0.17884,0.97758c-0.06114,0.32569 -0.12374,0.65123 -0.18771,0.97661c-0.06397,0.32537 -0.12933,0.65059 -0.19595,0.97564c-0.06662,0.32506 -0.1345,0.64996 -0.20355,0.97471c-0.06904,0.32475 -0.13925,0.64935 -0.21051,0.97382c-0.07126,0.32446 -0.14358,0.64879 -0.21685,0.97298c-0.07327,0.32419 -0.14749,0.64826 -0.22256,0.97221c-0.07507,0.32395 -0.15098,0.64778 -0.22764,0.97151c-0.07666,0.32373 -0.15406,0.64736 -0.23211,0.97091c-0.07804,0.32355 -0.15672,0.64702 -0.23595,0.97039c-0.07923,0.32338 -0.15901,0.64666 -0.23919,0.96998c-0.08017,0.32332 -0.16074,0.64668 -0.2418,0.96968c-0.08106,0.323 -0.16262,0.64564 -0.24381,0.96949c-0.08119,0.32386 -0.16202,0.64893 -0.24159,0.97352c-0.07957,0.32458 -0.15788,0.64867 -0.23664,0.97227c-0.07877,0.32361 -0.158,0.64674 -0.23905,0.96891c-0.08105,0.32217 -0.16393,0.64339 -0.25043,0.96318c-0.0865,0.31979 -0.17661,0.63815 -0.27231,0.95442c-0.0957,0.31627 -0.19699,0.63044 -0.30595,0.94163c-0.10896,0.31119 -0.2256,0.6194 -0.35188,0.92347c-0.12628,0.30407 -0.26219,0.60401 -0.40929,0.89842c-0.1471,0.29442 -0.30539,0.58331 -0.47559,0.86533c-0.1702,0.28202 -0.35232,0.55716 -0.54638,0.82402c-0.19406,0.26687 -0.40008,0.52546 -0.61636,0.77586c-0.21629,0.2504 -0.44284,0.4926 -0.68083,0.72352c-0.23799,0.23092 -0.4874,0.45057 -0.73682,0.67022z" id="item12335-1" fill="#c7c6cf" stroke="none" stroke-width="1" stroke-linecap="butt" stroke-linejoin="miter"></path></g><path d="M653.63162,339.85625c1.54008,-10.11073 10.98497,-17.05859 21.09571,-15.51849c10.11073,1.54009 17.05859,10.98498 15.51849,21.09571c-1.54008,10.11073 -10.98496,17.05859 -21.0957,15.51849c-10.11073,-1.54009 -17.0586,-10.98498 -15.5185,-21.09571z" id="Path-1-6" fill="#d9d3d3" stroke="#c7c6cf" stroke-width="1" stroke-linecap="round" stroke-linejoin="round"></path><path d="M650.98078,209.43389c0,-10.22258 8.28703,-18.50961 18.50961,-18.50961c10.22257,0 18.50961,8.28704 18.50961,18.50961c0,10.22258 -8.28703,18.50961 -18.50961,18.50961c-10.22257,0 -18.50961,-8.28704 -18.50961,-18.50961z" id="Path-1-7" fill="#d9d3d3" stroke="#c7c6cf" stroke-width="1" stroke-linecap="round" stroke-linejoin="round"></path><g id="Path-1-8" fill="#000000"><path d="M657.42354,207.27358c8.06724,3.49303 15.39046,7.7517 23.35159,11.2007" id="Path-1-9"></path><path d="M679.91935,218.17721c0.03345,0.00661 0.06701,-0.01084 0.08081,-0.04202c0.01379,-0.03118 0.00413,-0.06776 -0.02326,-0.08806v0c-0.29755,-0.15065 -0.59511,-0.30129 -0.89186,-0.45337c-0.29675,-0.15208 -0.59269,-0.30559 -0.8881,-0.46003c-0.29542,-0.15444 -0.59031,-0.3098 -0.88467,-0.4661c-0.29436,-0.1563 -0.58819,-0.31354 -0.88157,-0.47159c-0.29338,-0.15805 -0.5863,-0.31691 -0.87882,-0.47649c-0.29252,-0.15958 -0.58465,-0.31988 -0.87644,-0.48081c-0.29179,-0.16093 -0.58324,-0.32249 -0.87445,-0.48453c-0.29121,-0.16204 -0.58217,-0.32454 -0.87284,-0.48766c-0.29067,-0.16312 -0.58105,-0.32684 -0.87164,-0.4902c-0.29059,-0.16336 -0.58139,-0.32637 -0.87084,-0.49216c-0.28945,-0.16579 -0.57755,-0.33436 -0.87045,-0.49352c-0.29291,-0.15916 -0.59063,-0.30891 -0.89287,-0.44987c-0.30224,-0.14096 -0.609,-0.27312 -0.91467,-0.40756c-0.30567,-0.13444 -0.61025,-0.27116 -0.9153,-0.40704c-0.30505,-0.13589 -0.61056,-0.27094 -0.91616,-0.40585c-0.3056,-0.13491 -0.6113,-0.26968 -0.91724,-0.40398c-0.30594,-0.1343 -0.61211,-0.26813 -0.91853,-0.40143c-0.30641,-0.1333 -0.61307,-0.26608 -0.92002,-0.39822c-0.30696,-0.13214 -0.61422,-0.26363 -0.92172,-0.39435c-0.3075,-0.13072 -0.61524,-0.26065 -0.92359,-0.38982c-0.30836,-0.12917 -0.61733,-0.25757 -0.92564,-0.38465c-0.30831,-0.12708 -0.61595,-0.25285 -0.92785,-0.37884c-0.3119,-0.12599 -0.62806,-0.25219 -0.9302,-0.3724c-0.30213,-0.12021 -0.59023,-0.23443 -0.93267,-0.36536c-0.34243,-0.13093 -0.7392,-0.27858 -0.93525,-0.35771c-0.19605,-0.07914 0,0 0,0v0c0,0 -0.19139,-0.08976 0,0c0.19139,0.08976 0.56949,0.27992 0.89673,0.44469c0.32723,0.16477 0.6036,0.30415 0.8928,0.45173c0.28921,0.14758 0.59126,0.30337 0.88915,0.45823c0.29789,0.15487 0.59161,0.30882 0.88579,0.46419c0.29418,0.15537 0.58882,0.31214 0.88275,0.46959c0.29393,0.15745 0.58714,0.31556 0.88003,0.47443c0.29289,0.15887 0.58545,0.31848 0.87766,0.4787c0.29221,0.16022 0.58407,0.32105 0.87566,0.48241c0.29159,0.16136 0.5829,0.32327 0.87403,0.48555c0.29113,0.16228 0.58207,0.32495 0.87279,0.48811c0.29072,0.16316 0.58121,0.32683 0.87194,0.49009c0.29073,0.16326 0.58171,0.32613 0.8715,0.49149c0.28978,0.16536 0.57836,0.33323 0.87146,0.4923c0.2931,0.15908 0.5907,0.30937 0.89323,0.45005c0.30252,0.14068 0.60996,0.27175 0.91625,0.40519c0.30629,0.13344 0.61144,0.26925 0.91712,0.40407c0.30567,0.13482 0.61188,0.26865 0.9182,0.40225c0.30633,0.1336 0.61278,0.26697 0.9195,0.39975c0.30673,0.13278 0.61373,0.26499 0.92102,0.39656c0.30728,0.13157 0.61485,0.26251 0.92273,0.39268c0.30788,0.13017 0.61608,0.25958 0.92463,0.38812c0.30855,0.12854 0.61744,0.25622 0.92671,0.38289c0.30927,0.12667 0.61893,0.25232 0.92895,0.37698c0.31002,0.12465 0.62041,0.24831 0.93134,0.3704c0.31093,0.12209 0.62239,0.24263 0.93386,0.36317z" id="item13586-1" stroke="none" stroke-width="1" stroke-linecap="butt" stroke-linejoin="miter"></path></g><g id="Path-1-10"><path d="M669.0117,198.87114c3.37222,1.53792 6.97069,2.75475 9.89439,5.17762" id="Path-1-11" fill-opacity="0" fill="#000000"></path><path d="M678.7215,203.94768c0.01661,0.00818 0.03667,0.00376 0.0483,-0.01065c0.01163,-0.01441 0.01172,-0.03495 0.00022,-0.04946v0c-0.24327,-0.2325 -0.48654,-0.465 -0.73893,-0.68895c-0.25239,-0.22394 -0.51389,-0.43933 -0.78028,-0.64929c-0.26639,-0.20996 -0.53766,-0.41449 -0.81413,-0.61185c-0.27647,-0.19737 -0.55814,-0.38757 -0.84061,-0.57801c-0.28247,-0.19044 -0.56573,-0.3811 -0.86014,-0.54879c-0.29441,-0.16769 -0.59997,-0.3124 -0.91586,-0.43201c-0.31589,-0.11961 -0.64212,-0.21412 -0.96449,-0.31197c-0.32237,-0.09785 -0.64089,-0.19904 -0.96388,-0.29882c-0.323,-0.09978 -0.65047,-0.19816 -0.96244,-0.29359c-0.31196,-0.09543 -0.60841,-0.18792 -0.96026,-0.29626c-0.35185,-0.10834 -0.7591,-0.23253 -0.95728,-0.30691c-0.19818,-0.07437 0,0 0,0v0c0,0 -0.18731,-0.09892 0,0c0.18731,0.09892 0.55104,0.32132 0.86903,0.50828c0.31799,0.18695 0.59023,0.33847 0.87488,0.49888c0.28465,0.16041 0.58171,0.32971 0.87534,0.49546c0.29362,0.16575 0.58381,0.32794 0.87054,0.49797c0.28673,0.17003 0.57002,0.3479 0.86045,0.50626c0.29043,0.15835 0.58801,0.29719 0.89297,0.42119c0.30496,0.124 0.61728,0.23315 0.92512,0.35262c0.30783,0.11946 0.61117,0.24924 0.91251,0.38431c0.30134,0.13508 0.60069,0.27546 0.89703,0.42314c0.29634,0.14768 0.58969,0.30265 0.87784,0.46861c0.28815,0.16596 0.57112,0.3429 0.85409,0.51984z" id="item14111-1" fill="#000000" stroke="none" stroke-width="1" stroke-linecap="butt" stroke-linejoin="miter"></path></g></g></svg>