<?xml version="1.0" encoding="UTF-8" standalone="no"?>
<svg xmlns="http://www.w3.org/2000/svg" xmlns:xlink="http://www.w3.org/1999/xlink" version="1.1" width="721" height="721" viewBox="548 168 321 329"><g fill="none" fill-rule="nonzero" stroke="14px solid red" stroke-width="30px" stroke-linecap="none" stroke-linejoin="none" stroke-miterlimit="10" stroke-dasharray="none" font-family="none" font-weight="none" font-size="20"><path d="M550,332.5c0,-89.74627 70.96287,-162.5 158.5,-162.5c87.53713,0 158.5,72.75373 158.5,162.5c0,89.74627 -70.96287,162.5 -158.5,162.5c-87.53713,0 -158.5,-72.75373 -158.5,-162.5z" id="Path-1" fill-opacity="0" fill="#000000" stroke="#dadbe2" stroke-width="4" stroke-linecap="round" stroke-linejoin="round"/><g id="Path-1-1"><path d="M677.98124,256.76298c2.90608,23.51744 0.34916,42.88483 -5.29921,65.69257c-2.151,8.68561 -2.95199,16.82561 -7.34079,24.67166" id="Path-1-2" fill-opacity="0" fill="#000000"/><path d="M665.41646,346.98551c-0.00043,0.00146 0.00021,0.00303 0.00155,0.00377c0.00134,0.00074 0.00301,0.00045 0.00402,-0.00069v0c0.16339,-0.29067 0.32678,-0.58134 0.48525,-0.87477c0.15847,-0.29343 0.31203,-0.58964 0.46202,-0.88768c0.14999,-0.29804 0.29641,-0.59792 0.43897,-0.89969c0.14256,-0.30177 0.28125,-0.60542 0.41628,-0.91075c0.13503,-0.30533 0.26638,-0.61234 0.39416,-0.92086c0.12778,-0.30852 0.252,-0.61857 0.37281,-0.92997c0.12081,-0.3114 0.23821,-0.62416 0.35239,-0.93811c0.11418,-0.31395 0.22513,-0.6291 0.33308,-0.94529c0.10795,-0.31619 0.21288,-0.63343 0.31503,-0.95156c0.10215,-0.31813 0.20152,-0.63717 0.29836,-0.95696c0.09684,-0.31979 0.19114,-0.64035 0.28317,-0.96154c0.09203,-0.32119 0.1818,-0.64302 0.26956,-0.96537c0.08776,-0.32235 0.17352,-0.64522 0.25757,-0.9685c0.08405,-0.32328 0.16638,-0.64698 0.24728,-0.97099c0.0809,-0.32401 0.16037,-0.64834 0.23869,-0.9729c0.07832,-0.32456 0.1555,-0.64933 0.23181,-0.97426c0.07631,-0.32493 0.15176,-0.65 0.22664,-0.97514c0.07488,-0.32514 0.14919,-0.65035 0.22319,-0.97555c0.074,-0.3252 0.1477,-0.6504 0.22138,-0.97553c0.07368,-0.32513 0.14734,-0.65018 0.22124,-0.9751c0.0739,-0.32492 0.14803,-0.6497 0.22266,-0.97428c0.07463,-0.32458 0.14977,-0.64895 0.22564,-0.97306c0.07587,-0.32411 0.15248,-0.64795 0.2301,-0.97146c0.07762,-0.32351 0.15624,-0.6467 0.23597,-0.96947c0.07973,-0.32277 0.16055,-0.64513 0.24318,-0.96708c0.08263,-0.32195 0.16708,-0.6435 0.25143,-0.9659c0.08435,-0.3224 0.16859,-0.64563 0.25231,-0.96881c0.08372,-0.32318 0.1669,-0.6463 0.24964,-0.9696c0.08274,-0.3233 0.16505,-0.64678 0.24687,-0.97039c0.08182,-0.32361 0.16315,-0.64733 0.24398,-0.97121c0.08083,-0.32388 0.16116,-0.6479 0.24097,-0.97206c0.07981,-0.32416 0.15911,-0.64847 0.23786,-0.97293c0.07875,-0.32446 0.15697,-0.64906 0.23462,-0.97382c0.07765,-0.32476 0.15474,-0.64967 0.23126,-0.97473c0.07652,-0.32506 0.15245,-0.65029 0.22779,-0.97567c0.07534,-0.32538 0.15007,-0.65091 0.22419,-0.97661c0.07412,-0.3257 0.14762,-0.65155 0.22048,-0.97757c0.07286,-0.32602 0.14507,-0.65221 0.21663,-0.97856c0.07156,-0.32635 0.14245,-0.65287 0.21267,-0.97956c0.07022,-0.32669 0.13976,-0.65353 0.20858,-0.98056c0.06882,-0.32703 0.13693,-0.65423 0.20437,-0.98159c0.06744,-0.32736 0.13421,-0.65488 0.20003,-0.98261c0.06582,-0.32773 0.13067,-0.65567 0.19557,-0.98365c0.0649,-0.32798 0.12985,-0.65599 0.19099,-0.9847c0.06114,-0.32871 0.11848,-0.65813 0.17228,-0.98815c0.0538,-0.33002 0.10407,-0.66063 0.15424,-0.99125c0.05017,-0.33062 0.10023,-0.66124 0.14925,-0.99202c0.04902,-0.33078 0.09699,-0.66173 0.14414,-0.99278c0.04715,-0.33105 0.09348,-0.66222 0.13891,-0.99351c0.04543,-0.33129 0.08995,-0.66271 0.13357,-0.99424c0.04362,-0.33153 0.08633,-0.66319 0.12812,-0.99495c0.04179,-0.33176 0.08264,-0.66363 0.12255,-0.99562c0.03991,-0.33199 0.07888,-0.66408 0.11689,-0.99628c0.03801,-0.3322 0.07505,-0.66451 0.11112,-0.99692c0.03607,-0.33241 0.07116,-0.66492 0.10526,-0.99752c0.0341,-0.3326 0.06719,-0.6653 0.09929,-0.99809c0.0321,-0.33279 0.06319,-0.66567 0.09325,-0.99864c0.03006,-0.33297 0.0591,-0.66601 0.08711,-0.99914c0.02801,-0.33313 0.05498,-0.66634 0.0809,-0.99962c0.02592,-0.33328 0.0508,-0.66664 0.07461,-1.00006c0.02381,-0.33342 0.04657,-0.6669 0.06825,-1.00045c0.02168,-0.33355 0.04229,-0.66715 0.06182,-1.00081c0.01953,-0.33366 0.03798,-0.66736 0.05534,-1.00112c0.01736,-0.33376 0.03363,-0.66755 0.0488,-1.00139c0.01517,-0.33384 0.02924,-0.66771 0.04221,-1.00162c0.01297,-0.33391 0.02484,-0.66785 0.03559,-1.00181c0.01075,-0.33396 0.0204,-0.66794 0.02893,-1.00194c0.00853,-0.334 0.01594,-0.66801 0.02223,-1.00203c0.00629,-0.33402 0.01147,-0.66804 0.01552,-1.00207c0.00405,-0.33403 0.00698,-0.66806 0.00878,-1.00208c0.0018,-0.33402 0.00248,-0.66803 0.00203,-1.00202c-0.00045,-0.33399 -0.00201,-0.66797 -0.00471,-1.00192c-0.0027,-0.33395 -0.00652,-0.66788 -0.01147,-1.00178c-0.00495,-0.3339 -0.01102,-0.66776 -0.01821,-1.00158c-0.00719,-0.33382 -0.01551,-0.66761 -0.02495,-1.00135c-0.00944,-0.33374 -0.01999,-0.66743 -0.03166,-1.00107c-0.01167,-0.33364 -0.02446,-0.66721 -0.03836,-1.00073c-0.0139,-0.33352 -0.02891,-0.66698 -0.04503,-1.00037c-0.01612,-0.33339 -0.03333,-0.66671 -0.05165,-0.99995c-0.01832,-0.33324 -0.03775,-0.66641 -0.05826,-0.99949c-0.02051,-0.33308 -0.04211,-0.66608 -0.0648,-0.99899c-0.02269,-0.33291 -0.04647,-0.66574 -0.07132,-0.99846c-0.02485,-0.33272 -0.05078,-0.66535 -0.07777,-0.99788c-0.02699,-0.33253 -0.05505,-0.66496 -0.08417,-0.99727c-0.02912,-0.33231 -0.05929,-0.66451 -0.09051,-0.99662c-0.03122,-0.33211 -0.06349,-0.66412 -0.09679,-0.99594c-0.0333,-0.33182 -0.06762,-0.66344 -0.10301,-0.99523c-0.03539,-0.33179 -0.07184,-0.66373 -0.10915,-0.99448c-0.03731,-0.33075 -0.07547,-0.66029 -0.11523,-0.99372c-0.03976,-0.33343 -0.08113,-0.67074 -0.12123,-0.99291c-0.0401,-0.32217 -0.07894,-0.62919 -0.12716,-0.99209c-0.04822,-0.3629 -0.10583,-0.78167 -0.13301,-0.99125c-0.02718,-0.20958 0,0 0,0v0c0,0 -0.02394,-0.20997 0,0c0.02394,0.20997 0.0686,0.6303 0.10646,0.99437c0.03786,0.36407 0.06893,0.6719 0.10057,0.9949c0.03164,0.323 0.06383,0.66118 0.09461,0.9954c0.03078,0.33422 0.06012,0.66446 0.08857,0.99587c0.02845,0.33141 0.05599,0.66397 0.08247,0.99631c0.02648,0.33234 0.05191,0.66445 0.0763,0.99671c0.02439,0.33226 0.04775,0.66466 0.07006,0.99709c0.02231,0.33243 0.04355,0.66489 0.06375,0.99741c0.0202,0.33252 0.03933,0.6651 0.0574,0.99772c0.01807,0.33262 0.03507,0.66527 0.05099,0.99796c0.01592,0.33269 0.03075,0.66543 0.04451,0.99819c0.01376,0.33276 0.02643,0.66555 0.03801,0.99836c0.01158,0.33281 0.02206,0.66564 0.03144,0.99849c0.00938,0.33285 0.01767,0.66571 0.02485,0.99858c0.00718,0.33287 0.01325,0.66575 0.01822,0.99863c0.00497,0.33288 0.00882,0.66577 0.01156,0.99864c0.00274,0.33287 0.00437,0.66575 0.00488,0.9986c0.00051,0.33285 -0.00009,0.66569 -0.00182,0.99851c-0.00173,0.33282 -0.00457,0.66562 -0.00854,0.99839c-0.00397,0.33277 -0.00905,0.66551 -0.01526,0.99821c-0.00621,0.3327 -0.01354,0.66537 -0.02199,0.998c-0.00845,0.33263 -0.01802,0.66521 -0.02871,0.99774c-0.01069,0.33253 -0.0225,0.66502 -0.03542,0.99744c-0.01292,0.33242 -0.02697,0.66479 -0.04212,0.99709c-0.01515,0.3323 -0.03141,0.66453 -0.04879,0.9967c-0.01738,0.33217 -0.03586,0.66426 -0.05545,0.99628c-0.01959,0.33202 -0.04027,0.66395 -0.06206,0.9958c-0.02179,0.33185 -0.04467,0.66362 -0.06864,0.9953c-0.02397,0.33168 -0.04904,0.66327 -0.07518,0.99476c-0.02614,0.33149 -0.05337,0.66289 -0.08166,0.99418c-0.02829,0.33129 -0.05766,0.66248 -0.08809,0.99356c-0.03043,0.33108 -0.06192,0.66205 -0.09446,0.99291c-0.03254,0.33086 -0.06612,0.66161 -0.10075,0.99224c-0.03463,0.33063 -0.0703,0.66115 -0.10699,0.99154c-0.03669,0.33039 -0.07442,0.66066 -0.11315,0.9908c-0.03873,0.33014 -0.07847,0.66015 -0.11921,0.99004c-0.04074,0.32989 -0.08249,0.65964 -0.12521,0.98926c-0.04272,0.32962 -0.08643,0.65912 -0.1311,0.98847c-0.04467,0.32935 -0.09032,0.65856 -0.13691,0.98764c-0.04659,0.32908 -0.09413,0.65801 -0.14261,0.98681c-0.04848,0.3288 -0.09789,0.65745 -0.14822,0.98596c-0.05033,0.32851 -0.10157,0.65687 -0.15372,0.98509c-0.05215,0.32822 -0.10519,0.6563 -0.15911,0.98423c-0.05392,0.32793 -0.1087,0.65572 -0.1644,0.98335c-0.0557,0.32763 -0.11231,0.6551 -0.16957,0.98246c-0.05726,0.32736 -0.11517,0.65461 -0.17463,0.98158c-0.05946,0.32697 -0.12047,0.65367 -0.17957,0.98069c-0.0591,0.32702 -0.11628,0.65436 -0.17123,0.98213c-0.05495,0.32777 -0.10768,0.65596 -0.16198,0.98391c-0.0543,0.32795 -0.1102,0.65565 -0.16662,0.98328c-0.05642,0.32763 -0.11338,0.65519 -0.17112,0.98264c-0.05774,0.32745 -0.11628,0.65478 -0.17551,0.98201c-0.05923,0.32723 -0.11915,0.65434 -0.17977,0.98136c-0.06062,0.32702 -0.12194,0.65393 -0.18392,0.98073c-0.06198,0.3268 -0.12463,0.6535 -0.18793,0.98009c-0.0633,0.32659 -0.12726,0.65309 -0.19184,0.97947c-0.06458,0.32638 -0.12979,0.65266 -0.19561,0.97883c-0.06582,0.32617 -0.13224,0.65224 -0.19926,0.97821c-0.06702,0.32597 -0.13462,0.65184 -0.20279,0.9776c-0.06817,0.32576 -0.13692,0.65143 -0.20621,0.97699c-0.06929,0.32556 -0.13913,0.65103 -0.2095,0.9764c-0.07037,0.32537 -0.14126,0.65063 -0.21267,0.97581c-0.07141,0.32518 -0.14332,0.65026 -0.21573,0.97523c-0.07241,0.32497 -0.14531,0.64984 -0.21868,0.97467c-0.07337,0.32483 -0.14721,0.64963 -0.2215,0.97412c-0.07429,0.32449 -0.14901,0.64869 -0.22422,0.97359c-0.07521,0.3249 -0.1509,0.6505 -0.22479,0.97658c-0.07389,0.32608 -0.14596,0.65262 -0.21687,0.97928c-0.07091,0.32666 -0.14064,0.65342 -0.20931,0.98033c-0.06867,0.32691 -0.13629,0.65394 -0.20312,0.98105c-0.06683,0.32711 -0.13287,0.65428 -0.19838,0.98147c-0.06551,0.32719 -0.13049,0.65441 -0.19518,0.98159c-0.06469,0.32718 -0.12911,0.65434 -0.19352,0.98142c-0.06441,0.32708 -0.12882,0.65408 -0.1935,0.98096c-0.06468,0.32688 -0.12962,0.65363 -0.19512,0.98021c-0.0655,0.32658 -0.13155,0.65299 -0.19844,0.97917c-0.06689,0.32618 -0.13463,0.65212 -0.20349,0.97778c-0.06886,0.32566 -0.13884,0.65105 -0.21025,0.97607c-0.07141,0.32502 -0.14424,0.64969 -0.21877,0.97394c-0.07453,0.32425 -0.15078,0.64807 -0.22901,0.97139c-0.07823,0.32332 -0.15846,0.64615 -0.24096,0.96837c-0.0825,0.32222 -0.16727,0.64385 -0.25458,0.96479c-0.08731,0.32094 -0.17715,0.64118 -0.2698,0.96062c-0.09265,0.31944 -0.18809,0.63807 -0.28657,0.95578c-0.09848,0.31771 -0.2,0.63451 -0.30477,0.95024c-0.10477,0.31573 -0.2128,0.63041 -0.32428,0.9439c-0.11148,0.31349 -0.22641,0.62578 -0.34497,0.93674c-0.11856,0.31096 -0.24075,0.62058 -0.36668,0.92872c-0.12593,0.30814 -0.2556,0.61482 -0.38922,0.91981c-0.13362,0.30499 -0.27118,0.60831 -0.41241,0.90999c-0.14123,0.30168 -0.28612,0.60172 -0.43606,0.89928c-0.14994,0.29756 -0.30495,0.59264 -0.45995,0.88772z" id="item24595-1" fill="#c7c6cf" stroke="none" stroke-width="1" stroke-linecap="butt" stroke-linejoin="miter"/></g><path d="M760.46582,450.0565l-85.95469,-201.49456l11.09144,-4.73145l64.95469,72.49456z" id="Path-1-3" fill="#d9d3d3" stroke="#c7c6cf" stroke-width="2" stroke-linecap="round" stroke-linejoin="round" stroke-dasharray="3,1"/><g id="Path-1-4"><path d="M681.31474,272.08304c0.32338,2.62686 0.35817,5.3056 0.97014,7.88057c0.3999,1.68264 3.09091,3.04566 3.80988,4.63517c1.56171,3.45266 0.82539,8.28009 0.60995,11.91131c-0.47369,7.98417 -2.51793,15.75613 -4.67737,23.46179c-1.40534,5.01475 -2.00198,8.72572 -6.32872,11.83527" id="Path-1-5" fill-opacity="0" fill="#000000"/><path d="M676.31198,331.2997c-0.01004,0.01258 -0.01003,0.03045 0.00004,0.04301c0.01007,0.01256 0.0275,0.01646 0.04197,0.00939v0c0.26107,-0.20902 0.52214,-0.41803 0.77295,-0.63957c0.25081,-0.22154 0.49136,-0.45559 0.7224,-0.69899c0.23104,-0.2434 0.45258,-0.49614 0.6628,-0.75842c0.21022,-0.26228 0.40912,-0.53409 0.59641,-0.81384c0.18729,-0.27975 0.36297,-0.56745 0.52751,-0.86139c0.16454,-0.29394 0.31794,-0.59411 0.46155,-0.89872c0.14361,-0.30461 0.27745,-0.61365 0.40339,-0.92557c0.12594,-0.31192 0.244,-0.62674 0.35623,-0.94325c0.11223,-0.31651 0.21864,-0.63472 0.32121,-0.95378c0.10257,-0.31906 0.20131,-0.63897 0.298,-0.95908c0.09669,-0.32011 0.19133,-0.64042 0.28535,-0.96062c0.09402,-0.3202 0.18743,-0.64029 0.2817,-0.95947c0.09427,-0.31918 0.18941,-0.63744 0.28543,-0.95636c0.09602,-0.31892 0.19293,-0.63848 0.28924,-0.95803c0.09631,-0.31955 0.19203,-0.63909 0.28741,-0.95884c0.09538,-0.31975 0.19044,-0.63971 0.28497,-0.95985c0.09453,-0.32014 0.18854,-0.64048 0.28195,-0.96105c0.09341,-0.32057 0.18622,-0.64137 0.27832,-0.96244c0.0921,-0.32107 0.1835,-0.64239 0.27409,-0.96401c0.09059,-0.32162 0.18038,-0.64354 0.26926,-0.96577c0.08888,-0.32223 0.17685,-0.64479 0.26381,-0.96769c0.08696,-0.3229 0.1729,-0.64615 0.25773,-0.96977c0.08483,-0.32362 0.16855,-0.64761 0.25104,-0.972c0.08249,-0.32439 0.16376,-0.64917 0.2437,-0.97437c0.07994,-0.3252 0.15856,-0.65081 0.23572,-0.97686c0.07716,-0.32605 0.15285,-0.65253 0.22709,-0.97945c0.07424,-0.32692 0.14701,-0.65428 0.21781,-0.98215c0.0708,-0.32787 0.13962,-0.65626 0.20786,-0.98492c0.06824,-0.32866 0.13591,-0.65758 0.19724,-0.98773c0.06133,-0.33015 0.11634,-0.66154 0.1654,-0.99388c0.04906,-0.33234 0.09219,-0.66562 0.13424,-0.99904c0.04205,-0.33342 0.08301,-0.66695 0.12145,-1.00082c0.03844,-0.33387 0.07435,-0.66807 0.10799,-1.00249c0.03364,-0.33442 0.06503,-0.66907 0.09386,-1.00401c0.02883,-0.33494 0.05512,-0.67016 0.07909,-1.00533c0.02397,-0.33517 0.04564,-0.67029 0.06368,-1.00646c0.01804,-0.33617 0.03247,-0.67339 0.04765,-1.00616c0.01518,-0.33277 0.03111,-0.6611 0.04918,-0.99178c0.01807,-0.33068 0.03829,-0.66372 0.05805,-0.99705c0.01976,-0.33333 0.03905,-0.66694 0.05673,-1.0013c0.01768,-0.33436 0.03376,-0.66947 0.04686,-1.00516c0.0131,-0.33569 0.02321,-0.67194 0.02904,-1.00875c0.00583,-0.33681 0.00738,-0.67416 0.00319,-1.01191c-0.00419,-0.33775 -0.01412,-0.6759 -0.03138,-1.01419c-0.01726,-0.33829 -0.04183,-0.67671 -0.07584,-1.01476c-0.03401,-0.33805 -0.07745,-0.67572 -0.13191,-1.01219c-0.05446,-0.33647 -0.11996,-0.67172 -0.20163,-1.00417c-0.08167,-0.33245 -0.1795,-0.66209 -0.28695,-0.98701c-0.10745,-0.32492 -0.22451,-0.64514 -0.38917,-0.95615c-0.16466,-0.31101 -0.37692,-0.61282 -0.60576,-0.88005c-0.22884,-0.26723 -0.47427,-0.49987 -0.72309,-0.72682c-0.24882,-0.22695 -0.50105,-0.4482 -0.74945,-0.66884c-0.2484,-0.22064 -0.49299,-0.44068 -0.72797,-0.67038c-0.23498,-0.2297 -0.46036,-0.46907 -0.64633,-0.72455c-0.18597,-0.25548 -0.33254,-0.52707 -0.43586,-0.82919c-0.10332,-0.30212 -0.16341,-0.63477 -0.22537,-0.96291c-0.06196,-0.32814 -0.12581,-0.65178 -0.18142,-0.97832c-0.05561,-0.32654 -0.10297,-0.65598 -0.14702,-0.98604c-0.04405,-0.33006 -0.08478,-0.66073 -0.12283,-0.99089c-0.03805,-0.33016 -0.07344,-0.65982 -0.10896,-0.99362c-0.03552,-0.3338 -0.07119,-0.67175 -0.1054,-0.99467c-0.03421,-0.32292 -0.06697,-0.63082 -0.11217,-0.99421c-0.0452,-0.36339 -0.10284,-0.78228 -0.12932,-0.99197c-0.02648,-0.20969 0,0 0,0v0c0,0 -0.02179,-0.2102 0,0c0.02179,0.2102 0.06069,0.63109 0.09089,0.99583c0.0302,0.36474 0.0517,0.67332 0.07366,0.99713c0.02196,0.32381 0.04437,0.66283 0.06691,0.99789c0.02254,0.33506 0.04522,0.66614 0.0706,0.9983c0.02538,0.33216 0.05347,0.66541 0.08477,0.99828c0.0313,0.33287 0.0658,0.66538 0.10955,0.99735c0.04375,0.33197 0.09675,0.66339 0.145,0.99472c0.04825,0.33133 0.09176,0.66255 0.19254,0.99268c0.10078,0.33013 0.25885,0.65917 0.45132,0.95132c0.19247,0.29215 0.41934,0.54742 0.65336,0.79296c0.23402,0.24554 0.47517,0.48137 0.71627,0.71283c0.2411,0.23146 0.48213,0.45855 0.71687,0.69122c0.23474,0.23267 0.46318,0.47093 0.66025,0.71633c0.19707,0.2454 0.36275,0.49794 0.49738,0.78084c0.13463,0.2829 0.23821,0.59618 0.32949,0.90912c0.09128,0.31294 0.17026,0.62553 0.23498,0.94293c0.06472,0.3174 0.11517,0.6396 0.15493,0.9633c0.03976,0.3237 0.0688,0.6489 0.08891,0.97526c0.02011,0.32636 0.03126,0.65389 0.03532,0.98195c0.00406,0.32806 0.00102,0.65664 -0.00761,0.98554c-0.00863,0.3289 -0.02285,0.6581 -0.04129,0.98752c-0.01844,0.32942 -0.04112,0.65907 -0.06677,0.98892c-0.02565,0.32985 -0.05428,0.65993 -0.0846,0.9905c-0.03032,0.33057 -0.06231,0.66165 -0.09483,0.99294c-0.03252,0.33129 -0.06556,0.6628 -0.09678,0.99695c-0.03122,0.33415 -0.06062,0.67096 -0.08869,1.00345c-0.02807,0.33249 -0.05481,0.66067 -0.08522,0.98939c-0.03041,0.32872 -0.06449,0.65798 -0.10081,0.98675c-0.03632,0.32877 -0.07488,0.65705 -0.11591,0.98511c-0.04103,0.32806 -0.08453,0.65588 -0.1304,0.98337c-0.04587,0.32749 -0.0941,0.65465 -0.14426,0.98153c-0.05016,0.32688 -0.10224,0.65349 -0.15746,0.97961c-0.05522,0.32612 -0.11359,0.65174 -0.17003,0.97767c-0.05644,0.32593 -0.11095,0.65216 -0.16292,0.97897c-0.05197,0.32681 -0.10138,0.65421 -0.15379,0.98121c-0.05241,0.327 -0.10781,0.65362 -0.16458,0.9801c-0.05677,0.32648 -0.11491,0.65282 -0.17471,0.97895c-0.0598,0.32613 -0.12128,0.65205 -0.1842,0.97778c-0.06292,0.32573 -0.1273,0.65128 -0.19305,0.97664c-0.06575,0.32536 -0.13287,0.65052 -0.20125,0.9755c-0.06838,0.32498 -0.13802,0.64978 -0.20882,0.97441c-0.0708,0.32463 -0.14275,0.64908 -0.21576,0.97337c-0.07301,0.32429 -0.14707,0.64841 -0.22207,0.97239c-0.075,0.32398 -0.15095,0.6478 -0.22774,0.97149c-0.07679,0.32369 -0.15443,0.64725 -0.23281,0.97068c-0.07838,0.32343 -0.15749,0.64675 -0.23724,0.96997c-0.07975,0.32322 -0.16013,0.64633 -0.24106,0.96935c-0.08093,0.32302 -0.16241,0.64594 -0.24427,0.96886c-0.08186,0.32292 -0.16411,0.64585 -0.24687,0.96847c-0.08276,0.32262 -0.16602,0.64491 -0.24886,0.96822c-0.08284,0.32331 -0.16526,0.64763 -0.24646,0.97161c-0.0812,0.32398 -0.16119,0.64762 -0.24165,0.97085c-0.08046,0.32323 -0.1614,0.64605 -0.24419,0.96799c-0.08279,0.32194 -0.16743,0.64302 -0.25571,0.96273c-0.08828,0.31971 -0.18021,0.63804 -0.27775,0.95434c-0.09754,0.3163 -0.20069,0.63055 -0.31154,0.94182c-0.11085,0.31127 -0.2294,0.61957 -0.3576,0.9237c-0.1282,0.30413 -0.26606,0.6041 -0.4151,0.89846c-0.14904,0.29436 -0.30926,0.58312 -0.48136,0.86489c-0.1721,0.28177 -0.35608,0.55653 -0.55194,0.82289c-0.19586,0.26636 -0.40359,0.5243 -0.62152,0.77392c-0.21793,0.24962 -0.44604,0.49092 -0.68545,0.7208c-0.23941,0.22988 -0.49012,0.44834 -0.74083,0.66681z" id="item24589-1" fill="#c7c6cf" stroke="none" stroke-width="1" stroke-linecap="butt" stroke-linejoin="miter"/></g><path d="M663.37754,333.89387c0.95641,-6.27885 6.82177,-10.59353 13.10062,-9.63712c6.27885,0.95641 10.59353,6.82177 9.63712,13.10062c-0.95641,6.27885 -6.82176,10.59353 -13.10061,9.63712c-6.27885,-0.95641 -10.59354,-6.82177 -9.63713,-13.10062z" id="Path-1-6" fill="#d9d3d3" stroke="#c7c6cf" stroke-width="1" stroke-linecap="round" stroke-linejoin="round"/><path d="M656.53419,229.9435c0,-8.28427 6.71573,-15 15,-15c8.28427,0 15,6.71573 15,15c0,8.28427 -6.71573,15 -15,15c-8.28427,0 -15,-6.71573 -15,-15z" id="Path-1-7" fill="#d9d3d3" stroke="#c7c6cf" stroke-width="1" stroke-linecap="round" stroke-linejoin="round"/><g id="Path-1-8" fill="#000000"><path d="M660.58967,224.5182c8.06724,3.49303 15.39046,7.7517 23.35159,11.2007" id="Path-1-9"/><path d="M683.08549,235.42182c0.03345,0.00661 0.06701,-0.01084 0.0808,-0.04202c0.01379,-0.03118 0.00414,-0.06776 -0.02325,-0.08806v0c-0.29755,-0.15065 -0.59511,-0.30129 -0.89186,-0.45337c-0.29675,-0.15208 -0.59268,-0.30558 -0.8881,-0.46002c-0.29542,-0.15444 -0.59031,-0.3098 -0.88467,-0.4661c-0.29436,-0.1563 -0.58819,-0.31354 -0.88157,-0.47159c-0.29338,-0.15805 -0.5863,-0.31692 -0.87882,-0.4765c-0.29252,-0.15958 -0.58465,-0.31987 -0.87644,-0.4808c-0.29179,-0.16093 -0.58323,-0.32249 -0.87444,-0.48453c-0.29121,-0.16204 -0.58218,-0.32454 -0.87285,-0.48766c-0.29067,-0.16312 -0.58104,-0.32684 -0.87163,-0.4902c-0.29059,-0.16336 -0.58139,-0.32637 -0.87084,-0.49216c-0.28945,-0.16579 -0.57755,-0.33436 -0.87046,-0.49352c-0.29291,-0.15916 -0.59063,-0.30891 -0.89287,-0.44987c-0.30224,-0.14096 -0.60899,-0.27312 -0.91466,-0.40756c-0.30567,-0.13444 -0.61025,-0.27115 -0.9153,-0.40704c-0.30505,-0.13589 -0.61056,-0.27094 -0.91616,-0.40585c-0.3056,-0.13491 -0.6113,-0.26968 -0.91724,-0.40398c-0.30594,-0.1343 -0.61211,-0.26813 -0.91852,-0.40143c-0.30641,-0.1333 -0.61307,-0.26608 -0.92003,-0.39822c-0.30696,-0.13214 -0.61421,-0.26363 -0.92171,-0.39435c-0.3075,-0.13072 -0.61524,-0.26065 -0.9236,-0.38982c-0.30836,-0.12917 -0.61733,-0.25757 -0.92564,-0.38465c-0.30831,-0.12708 -0.61595,-0.25285 -0.92785,-0.37884c-0.3119,-0.12599 -0.62806,-0.2522 -0.93019,-0.37241c-0.30213,-0.12021 -0.59024,-0.23442 -0.93267,-0.36535c-0.34243,-0.13093 -0.7392,-0.27858 -0.93525,-0.35772c-0.19605,-0.07914 0,0 0,0v0c0,0 -0.19139,-0.08976 0,0c0.19139,0.08976 0.56949,0.27992 0.89672,0.44469c0.32723,0.16477 0.6036,0.30415 0.89281,0.45173c0.28921,0.14758 0.59126,0.30337 0.88915,0.45824c0.29789,0.15487 0.59161,0.30882 0.88579,0.46419c0.29418,0.15537 0.58882,0.31213 0.88275,0.46958c0.29393,0.15745 0.58714,0.31556 0.88003,0.47443c0.29289,0.15887 0.58545,0.31849 0.87766,0.47871c0.29221,0.16022 0.58407,0.32105 0.87566,0.48241c0.29159,0.16136 0.5829,0.32327 0.87403,0.48555c0.29113,0.16228 0.58207,0.32495 0.87279,0.48811c0.29072,0.16316 0.58121,0.32683 0.87194,0.49009c0.29073,0.16326 0.58171,0.32613 0.87149,0.49149c0.28978,0.16536 0.57836,0.33322 0.87146,0.4923c0.2931,0.15908 0.59071,0.30937 0.89323,0.45005c0.30252,0.14068 0.60996,0.27175 0.91625,0.40519c0.30629,0.13344 0.61145,0.26925 0.91712,0.40407c0.30567,0.13482 0.61187,0.26865 0.9182,0.40225c0.30633,0.1336 0.61277,0.26697 0.9195,0.39975c0.30673,0.13278 0.61374,0.26499 0.92102,0.39656c0.30728,0.13157 0.61485,0.26251 0.92273,0.39268c0.30788,0.13017 0.61608,0.25958 0.92463,0.38812c0.30855,0.12854 0.61743,0.25622 0.9267,0.38289c0.30927,0.12667 0.61894,0.25232 0.92896,0.37697c0.31002,0.12465 0.62041,0.24831 0.93134,0.3704c0.31093,0.12209 0.62239,0.24263 0.93386,0.36317z" id="item24601-1" stroke="none" stroke-width="1" stroke-linecap="butt" stroke-linejoin="miter"/></g><g id="Path-1-10"><path d="M671.48842,219.11251c3.37222,1.53792 6.97069,2.75475 9.89439,5.17762" id="Path-1-11" fill-opacity="0" fill="#000000"/><path d="M681.19822,224.18905c0.01661,0.00818 0.03666,0.00377 0.04829,-0.01064c0.01163,-0.01441 0.01172,-0.03495 0.00022,-0.04946v0c-0.24327,-0.2325 -0.48654,-0.465 -0.73893,-0.68894c-0.25239,-0.22394 -0.51389,-0.43933 -0.78028,-0.64929c-0.26639,-0.20996 -0.53767,-0.41449 -0.81414,-0.61186c-0.27647,-0.19737 -0.55814,-0.38756 -0.84061,-0.578c-0.28247,-0.19044 -0.56573,-0.3811 -0.86014,-0.54879c-0.29441,-0.16769 -0.59997,-0.3124 -0.91586,-0.43201c-0.31589,-0.11961 -0.64212,-0.21413 -0.96449,-0.31198c-0.32237,-0.09785 -0.64088,-0.19903 -0.96388,-0.29881c-0.323,-0.09978 -0.65048,-0.19816 -0.96244,-0.29359c-0.31196,-0.09543 -0.60841,-0.18792 -0.96026,-0.29626c-0.35185,-0.10834 -0.7591,-0.23254 -0.95728,-0.30691c-0.19818,-0.07437 0,0 0,0v0c0,0 -0.18731,-0.09892 0,0c0.18731,0.09892 0.55103,0.32132 0.86902,0.50827c0.31799,0.18695 0.59023,0.33847 0.87488,0.49888c0.28465,0.16041 0.58172,0.32971 0.87534,0.49546c0.29362,0.16575 0.58381,0.32794 0.87054,0.49797c0.28673,0.17003 0.57002,0.34791 0.86045,0.50626c0.29043,0.15835 0.58801,0.29719 0.89297,0.42119c0.30496,0.124 0.61729,0.23315 0.92512,0.35261c0.30783,0.11946 0.61117,0.24924 0.91251,0.38432c0.30134,0.13508 0.6007,0.27546 0.89704,0.42314c0.29634,0.14768 0.58969,0.30265 0.87784,0.46861c0.28815,0.16596 0.57112,0.34289 0.85409,0.51983z" id="item24607-1" fill="#000000" stroke="none" stroke-width="1" stroke-linecap="butt" stroke-linejoin="miter"/></g></g></svg>